<svg width="42" height="49" viewBox="0 0 42 49" fill="none" xmlns="http://www.w3.org/2000/svg">
<path d="M4.17902 2.07268L3.2517 0.893665L0.893665 2.7483L1.82098 3.92732L4.17902 2.07268ZM37.822 48.9894C38.6446 49.0877 39.3911 48.5006 39.4894 47.678L41.0912 34.2733C41.1895 33.4508 40.6024 32.7043 39.7798 32.606C38.9572 32.5077 38.2107 33.0948 38.1124 33.9174L36.6886 45.8326L24.7733 44.4088C23.9508 44.3105 23.2043 44.8976 23.106 45.7202C23.0077 46.5428 23.5948 47.2893 24.4174 47.3876L37.822 48.9894ZM3 3L1.82098 3.92732L36.821 48.4273L38 47.5L39.179 46.5727L4.17902 2.07268L3 3Z" fill="white"/>
</svg>
