<svg width="31" height="31" viewBox="0 0 31 31" fill="none" xmlns="http://www.w3.org/2000/svg">
<g clip-path="url(#clip0_20_1116)">
<g clip-path="url(#clip1_20_1116)">
<g clip-path="url(#clip2_20_1116)">
<path d="M15.0864 0.367445C15.1445 -0.122482 15.8555 -0.122482 15.9136 0.367445L16.4013 4.4775C17.031 9.78467 21.2153 13.969 26.5224 14.5987L30.6325 15.0864C31.1226 15.1445 31.1226 15.8555 30.6325 15.9136L26.5224 16.4013C21.2153 17.031 17.031 21.2153 16.4013 26.5224L15.9136 30.6325C15.8555 31.1226 15.1445 31.1226 15.0864 30.6325L14.5987 26.5224C13.969 21.2153 9.78467 17.031 4.4775 16.4013L0.367445 15.9136C-0.122482 15.8555 -0.122482 15.1445 0.367445 15.0864L4.4775 14.5987C9.78467 13.969 13.969 9.78467 14.5987 4.4775L15.0864 0.367445Z" fill="#2D3032"/>
</g>
</g>
</g>
<defs>
<clipPath id="clip0_20_1116">
<rect width="31" height="31" fill="white"/>
</clipPath>
<clipPath id="clip1_20_1116">
<rect width="31" height="31" fill="white"/>
</clipPath>
<clipPath id="clip2_20_1116">
<rect width="31" height="31" fill="white"/>
</clipPath>
</defs>
</svg>
