<svg class="venok centerr" width="119" height="119" viewBox="0 0 119 119" fill="none" xmlns="http://www.w3.org/2000/svg">
<g clip-path="url(#clip0_18_1057)">
<mask id="mask0_18_1057" style="mask-type:luminance" maskUnits="userSpaceOnUse" x="0" y="0" width="119" height="119">
<path d="M119 0H0V119H119V0Z" fill="white"/>
</mask>
<g mask="url(#mask0_18_1057)">
<path d="M75.2763 89.3431C84.4388 78.1419 100.03 74.8575 113.793 77.0174L116.669 77.4685L114.913 79.7901C106.147 91.3715 89.9777 94.9642 76.2732 92.152L73.4502 91.5738L75.2763 89.3431Z" fill="#F7F5EA"/>
<path d="M78.8437 6.92339C88.4935 14.682 94.259 27.5471 91.8644 39.9191L91.3392 42.6322L89.1199 40.9901C79.225 33.6704 72.5415 20.0828 76.0769 7.79902L76.8028 5.28229L78.8437 6.92339Z" fill="#F7F5EA"/>
<path d="M118.615 46.7483C116.72 60.2091 107.051 73.8692 93.2628 76.9107L90.7075 77.476L91.1754 74.8985C93.629 61.3942 103.043 49.0527 116.367 44.845L119 44.0122L118.615 46.7483Z" fill="#F7F5EA"/>
<path d="M104.245 17.1696C109.352 28.9576 107.801 43.2177 99.9228 53.4229L98.0713 55.8186L96.9278 53.0158C92.1132 41.1862 93.314 26.9865 101.271 16.7922L103.078 14.4788L104.245 17.1696Z" fill="#F7F5EA"/>
<path d="M17.7296 16.7929C25.6897 26.9873 26.8879 41.187 22.0732 53.0165L20.9308 55.8202L19.0804 53.4248C11.2013 43.2176 9.65066 28.9584 14.7581 17.1695L15.9256 14.4788L17.7296 16.7929Z" fill="#F7F5EA"/>
<path d="M42.7264 92.152C29.0216 94.9653 12.8525 91.3726 4.08712 79.7901L2.32959 77.4685L5.20582 77.0174C18.9701 74.8575 34.5592 78.1419 43.7251 89.3431L45.5493 91.5727L42.7264 92.152Z" fill="#F7F5EA"/>
<path d="M42.9236 7.79864C46.4602 20.0814 39.7784 33.6692 29.8831 40.9887L27.6604 42.6309L27.1367 39.9177C24.7447 27.5447 30.508 14.6798 40.1572 6.92199L42.1995 5.28229L42.9236 7.79864Z" fill="#F7F5EA"/>
<path d="M2.63574 44.8461C15.9568 49.0541 25.3737 61.3953 27.8271 74.8996L28.2946 77.4771L25.7384 76.9118C11.9493 73.8703 2.28051 60.2102 0.385431 46.7494L0 44.0122L2.63574 44.8461Z" fill="#F7F5EA"/>
<path d="M69.1713 101.842C71.4144 104.227 73.7447 106.522 76.4352 108.338L78.2878 109.582L76.6261 111.076C75.9397 111.693 75.2625 112.314 74.588 112.941L73.755 113.716L72.7105 113.264C66.2985 110.496 64.4794 103.611 59.5004 100.364C54.5229 103.611 52.7044 110.496 46.2924 113.266L45.2453 113.718L44.4125 112.942C43.7388 112.314 43.0605 111.693 42.3765 111.078L40.7177 109.584L42.5694 108.339C45.2589 106.525 47.5901 104.229 49.8329 101.845C46.7603 103.365 43.7106 105.118 40.2118 105.774C33.9643 106.824 27.2774 107.198 21.3384 104.606L18.4668 103.356L21.0455 101.576C26.9181 97.5259 33.2222 93.7499 40.5269 93.1689C46.2758 92.8536 52.1045 92.9953 57.7392 94.2935L57.8117 94.3102L57.8841 94.3357C58.9476 94.6791 60.057 94.6791 61.122 94.3357L61.1934 94.3102L61.2686 94.2935C66.8995 92.9953 72.7294 92.8536 78.4998 93.1689C85.7875 93.7499 92.0896 97.527 97.959 101.576L100.536 103.356L97.6664 104.606C91.7272 107.2 85.0405 106.823 78.7773 105.771C75.2868 105.115 72.2404 103.363 69.1713 101.842Z" fill="#F7F5EA"/>
</g>
</g>
<defs>
<clipPath id="clip0_18_1057">
<rect width="119" height="119" fill="white"/>
</clipPath>
</defs>
</svg>
